<?xml version="1.0" encoding="utf-8"?>
<!-- Generator: Adobe Illustrator 17.0.0, SVG Export Plug-In . SVG Version: 6.00 Build 0)  -->
<!DOCTYPE svg PUBLIC "-//W3C//DTD SVG 1.1//EN" "http://www.w3.org/Graphics/SVG/1.1/DTD/svg11.dtd">
<svg version="1.1" id="Layer_1" xmlns="http://www.w3.org/2000/svg" xmlns:xlink="http://www.w3.org/1999/xlink" x="0px" y="0px"
	 width="450px" height="450px" viewBox="0 0 450 450" enable-background="new 0 0 450 450" xml:space="preserve">
<radialGradient id="SVGID_1_" cx="225" cy="225" r="119.0697" gradientUnits="userSpaceOnUse">
	<stop  offset="0" style="stop-color:#FFFFFF"/>
	<stop  offset="0.3818" style="stop-color:#FFFFFF"/>
	<stop  offset="0.4439" style="stop-color:#FFFFFF"/>
	<stop  offset="0.5167" style="stop-color:#FAFAF9"/>
	<stop  offset="0.7912" style="stop-color:#EAEBE9"/>
	<stop  offset="1" style="stop-color:#E4E6E3"/>
</radialGradient>
<rect x="163.415" y="163.415" fill="url(#SVGID_1_)" width="123.17" height="123.17"/>
<g>
	
		<linearGradient id="SVGID_2_" gradientUnits="userSpaceOnUse" x1="229.9331" y1="181.6357" x2="217.1879" y2="263.6578" gradientTransform="matrix(0.9881 -0.1535 0.1535 0.9881 -30.1917 36.941)">
		<stop  offset="0" style="stop-color:#16AFD4"/>
		<stop  offset="1" style="stop-color:#204D78"/>
	</linearGradient>
	<path fill="url(#SVGID_2_)" d="M218.488,181.459c-18.678,2.902-30.956,23.684-27.424,46.418
		c3.533,22.734,21.538,38.81,40.216,35.907c18.678-2.902,30.956-23.684,27.424-46.418
		C255.172,194.633,237.167,178.557,218.488,181.459z M231.111,262.695c-17.195,2.672-33.898-12.948-37.307-34.888
		c-3.409-21.94,7.766-41.892,24.961-44.564c17.195-2.672,33.898,12.948,37.307,34.888
		C259.482,240.071,248.306,260.023,231.111,262.695z"/>
	
		<linearGradient id="SVGID_3_" gradientUnits="userSpaceOnUse" x1="229.7062" y1="183.4467" x2="217.4148" y2="262.5486" gradientTransform="matrix(0.9881 -0.1535 0.1535 0.9881 -30.1917 36.941)">
		<stop  offset="0" style="stop-color:#16AFD4"/>
		<stop  offset="1" style="stop-color:#204D78"/>
	</linearGradient>
	<path fill="url(#SVGID_3_)" d="M218.766,183.242c-17.195,2.672-28.37,22.624-24.961,44.564c3.409,21.94,20.112,37.56,37.307,34.888
		c17.195-2.672,28.37-22.624,24.961-44.564C252.663,196.19,235.96,180.57,218.766,183.242z"/>
</g>
<g opacity="0.77">
	
		<linearGradient id="SVGID_4_" gradientUnits="userSpaceOnUse" x1="185.5592" y1="248.9685" x2="185.5592" y2="176.3767" gradientTransform="matrix(-0.4736 -0.842 1.0265 -0.5774 91.3294 500.866)">
		<stop  offset="0" style="stop-color:#2388B4"/>
		<stop  offset="1" style="stop-color:#DEE3E5"/>
	</linearGradient>
	<path fill="url(#SVGID_4_)" d="M184.499,242.785c8.123,14.441,31.389,16.765,51.966,5.191
		c20.577-11.574,30.673-32.664,22.55-47.105c-8.123-14.441-31.389-16.765-51.966-5.191
		C186.472,207.254,176.376,228.344,184.499,242.785z M258.029,201.426c7.478,13.294-2.559,33.126-22.418,44.297
		c-19.859,11.17-42.02,9.448-49.497-3.846c-7.478-13.294,2.559-33.127,22.418-44.297C228.39,186.41,250.551,188.132,258.029,201.426
		z"/>
	
		<linearGradient id="SVGID_5_" gradientUnits="userSpaceOnUse" x1="185.5591" y1="248.0076" x2="185.5591" y2="177.9491" gradientTransform="matrix(-0.4736 -0.842 1.0265 -0.5774 91.3294 500.866)">
		<stop  offset="0" style="stop-color:#2388B4"/>
		<stop  offset="1" style="stop-color:#DEE3E5"/>
	</linearGradient>
	<path fill="url(#SVGID_5_)" d="M186.113,241.877c7.478,13.294,29.638,15.016,49.497,3.846
		c19.859-11.17,29.896-31.002,22.418-44.297s-29.638-15.016-49.497-3.846C188.672,208.75,178.635,228.583,186.113,241.877z"/>
</g>
<g>
	
		<linearGradient id="SVGID_6_" gradientUnits="userSpaceOnUse" x1="207.4436" y1="250.6778" x2="207.4436" y2="176.5317" gradientTransform="matrix(0.507 -0.8223 1.0025 0.6181 -94.428 260.3799)">
		<stop  offset="0" style="stop-color:#B6C0CB"/>
		<stop  offset="1" style="stop-color:#2388B4"/>
	</linearGradient>
	<path fill="url(#SVGID_6_)" d="M187.72,198.912c-8.882,14.405,0.557,36.342,21.083,48.999s44.365,11.238,53.248-3.167
		c8.882-14.405-0.557-36.343-21.083-48.999C220.441,183.089,196.602,184.507,187.72,198.912z M261.066,244.137
		c-8.177,13.261-30.864,14.109-50.673,1.895s-29.24-32.866-21.063-46.127c8.177-13.261,30.864-14.11,50.673-1.895
		S269.242,230.876,261.066,244.137z"/>
	
		<linearGradient id="SVGID_7_" gradientUnits="userSpaceOnUse" x1="207.4437" y1="249.6962" x2="207.4437" y2="178.1378" gradientTransform="matrix(0.507 -0.8223 1.0025 0.6181 -94.428 260.3799)">
		<stop  offset="0" style="stop-color:#B6C0CB"/>
		<stop  offset="1" style="stop-color:#2388B4"/>
	</linearGradient>
	<path fill="url(#SVGID_7_)" d="M189.33,199.905c-8.177,13.261,1.253,33.913,21.063,46.127s42.497,11.366,50.673-1.895
		c8.177-13.261-1.253-33.913-21.063-46.127S197.506,186.644,189.33,199.905z"/>
</g>
<g>
	
		<linearGradient id="SVGID_8_" gradientUnits="userSpaceOnUse" x1="236.4493" y1="248.4698" x2="236.4493" y2="174.3252" gradientTransform="matrix(0.1819 0.9488 -1.1567 0.2217 427.4031 -47.691)">
		<stop  offset="0" style="stop-color:#16AFD4"/>
		<stop  offset="1" style="stop-color:#B6C0CB"/>
	</linearGradient>
	<path fill="url(#SVGID_8_)" d="M268.771,215.298c-3.186-16.621-24.968-26.414-48.65-21.874
		c-23.683,4.54-40.298,21.694-37.112,38.315c3.186,16.621,24.968,26.414,48.65,21.874
		C255.342,249.073,271.957,231.919,268.771,215.298z M184.144,231.522c-2.933-15.301,13.218-31.256,36.074-35.638
		c22.856-4.382,43.763,4.47,46.696,19.771c2.933,15.301-13.218,31.256-36.074,35.638
		C207.983,255.674,187.077,246.822,184.144,231.522z"/>
	
		<linearGradient id="SVGID_9_" gradientUnits="userSpaceOnUse" x1="236.4493" y1="247.4884" x2="236.4493" y2="175.9312" gradientTransform="matrix(0.1819 0.9488 -1.1567 0.2217 427.4031 -47.691)">
		<stop  offset="0" style="stop-color:#16AFD4"/>
		<stop  offset="1" style="stop-color:#B6C0CB"/>
	</linearGradient>
	<path fill="url(#SVGID_9_)" d="M266.913,215.654c-2.933-15.301-23.84-24.152-46.696-19.771
		c-22.856,4.382-39.007,20.337-36.074,35.638c2.933,15.301,23.84,24.152,46.696,19.771
		C253.696,246.911,269.846,230.955,266.913,215.654z"/>
</g>
<g>
	
		<linearGradient id="SVGID_10_" gradientUnits="userSpaceOnUse" x1="229.0127" y1="257.4124" x2="229.0127" y2="183.2688" gradientTransform="matrix(0.7841 0.5643 -0.6879 0.956 197.8931 -116.3586)">
		<stop  offset="0" style="stop-color:#16AFD4"/>
		<stop  offset="1" style="stop-color:#204D78"/>
	</linearGradient>
	<path fill="url(#SVGID_10_)" d="M251.393,188.079c-13.736-9.885-36.29-2.031-50.375,17.541
		c-14.085,19.573-14.368,43.453-0.631,53.338c13.736,9.885,36.29,2.031,50.375-17.541
		C264.847,221.844,265.129,197.964,251.393,188.079z M201.062,258.02c-12.645-9.1-11.877-31.79,1.717-50.68
		c13.593-18.89,34.864-26.826,47.51-17.726s11.877,31.79-1.717,50.68C234.978,259.184,213.707,267.12,201.062,258.02z"/>
	
		<linearGradient id="SVGID_11_" gradientUnits="userSpaceOnUse" x1="229.0128" y1="256.4309" x2="229.0128" y2="184.8748" gradientTransform="matrix(0.7841 0.5643 -0.6879 0.956 197.8931 -116.3586)">
		<stop  offset="0" style="stop-color:#16AFD4"/>
		<stop  offset="1" style="stop-color:#204D78"/>
	</linearGradient>
	<path fill="url(#SVGID_11_)" d="M250.288,189.615c-12.645-9.1-33.916-1.164-47.51,17.726c-13.593,18.89-14.362,41.58-1.717,50.68
		c12.645,9.1,33.916,1.164,47.51-17.726C262.165,221.405,262.934,198.714,250.288,189.615z"/>
</g>
<defs>
	<filter id="Adobe_OpacityMaskFilter" filterUnits="userSpaceOnUse" x="193.129" y="270.892" width="63.511" height="8.759">
		<feFlood  style="flood-color:white;flood-opacity:1" result="back"/>
		<feBlend  in="SourceGraphic" in2="back" mode="normal"/>
	</filter>
</defs>
<mask maskUnits="userSpaceOnUse" x="193.129" y="270.892" width="63.511" height="8.759" id="SVGID_12_">
	<g filter="url(#Adobe_OpacityMaskFilter)">
		<defs>
			<filter id="Adobe_OpacityMaskFilter_1_" filterUnits="userSpaceOnUse" x="193.129" y="270.892" width="63.511" height="8.759">
				<feFlood  style="flood-color:white;flood-opacity:1" result="back"/>
				<feBlend  in="SourceGraphic" in2="back" mode="normal"/>
			</filter>
		</defs>
		<mask maskUnits="userSpaceOnUse" x="193.129" y="270.892" width="63.511" height="8.759" id="SVGID_12_">
			<g filter="url(#Adobe_OpacityMaskFilter_1_)">
			</g>
		</mask>
		
			<radialGradient id="SVGID_13_" cx="215.8797" cy="-2368.4346" r="29.1016" gradientTransform="matrix(1.0911 0 0 0.1505 -10.6617 631.721)" gradientUnits="userSpaceOnUse">
			<stop  offset="0" style="stop-color:#FFFFFF"/>
			<stop  offset="0.0874" style="stop-color:#F8F8F8"/>
			<stop  offset="0.2167" style="stop-color:#E4E4E4"/>
			<stop  offset="0.3721" style="stop-color:#C3C3C3"/>
			<stop  offset="0.5478" style="stop-color:#959595"/>
			<stop  offset="0.7405" style="stop-color:#5B5B5B"/>
			<stop  offset="0.9445" style="stop-color:#141414"/>
			<stop  offset="1" style="stop-color:#000000"/>
		</radialGradient>
		<ellipse mask="url(#SVGID_12_)" fill="url(#SVGID_13_)" cx="224.885" cy="275.272" rx="31.756" ry="4.379"/>
	</g>
</mask>
<radialGradient id="SVGID_14_" cx="215.8797" cy="-2368.4346" r="29.1016" gradientTransform="matrix(1.0911 0 0 0.1505 -10.6617 631.721)" gradientUnits="userSpaceOnUse">
	<stop  offset="0" style="stop-color:#E1E3E0"/>
	<stop  offset="0.3686" style="stop-color:#E8EAE7"/>
	<stop  offset="0.9124" style="stop-color:#FBFBFB"/>
	<stop  offset="1" style="stop-color:#FFFFFF"/>
</radialGradient>
<ellipse fill="url(#SVGID_14_)" cx="224.885" cy="275.272" rx="31.756" ry="4.379"/>
</svg>
